<?xml version="1.0" standalone="no"?>
<!DOCTYPE svg PUBLIC "-//W3C//DTD SVG 20010904//EN"
 "http://www.w3.org/TR/2001/REC-SVG-20010904/DTD/svg10.dtd">
<svg version="1.0" xmlns="http://www.w3.org/2000/svg"
 width="626.000000pt" height="417.000000pt" viewBox="0 0 626.000000 417.000000"
 preserveAspectRatio="xMidYMid meet">

<g transform="translate(0.000000,417.000000) scale(0.100000,-0.100000)"
fill="#000000" stroke="none">
<path d="M4418 2682 c-4 -13 -41 -34 -117 -67 -83 -36 -111 -53 -111 -67 0
-10 7 -18 15 -18 8 0 15 -8 15 -19 0 -10 7 -24 15 -31 8 -7 12 -16 9 -22 -3
-5 9 -25 28 -46 29 -32 40 -37 74 -36 29 0 51 9 77 30 32 25 37 34 37 73 0 46
-34 121 -55 121 -7 0 -45 -13 -85 -30 -121 -50 -105 -34 26 26 l74 33 29 -50
c21 -38 30 -46 35 -34 3 10 -2 27 -14 42 -11 14 -17 30 -14 35 3 5 0 16 -7 24
-10 12 -8 17 7 29 10 8 14 15 7 15 -6 0 -18 3 -26 6 -9 3 -16 -2 -19 -14z"/>
<path d="M4260 2644 c-30 -25 -57 -48 -60 -51 -4 -4 34 12 138 58 41 18 44 22
27 29 -36 15 -49 10 -105 -36z"/>
<path d="M2871 2564 c34 -65 58 -74 196 -72 l118 2 -128 5 c-129 6 -129 6
-155 37 -15 17 -33 39 -40 50 -7 10 -3 1 9 -22z"/>
<path d="M3338 2513 c7 -3 16 -2 19 1 4 3 -2 6 -13 5 -11 0 -14 -3 -6 -6z"/>
<path d="M3218 2503 c17 -2 47 -2 65 0 17 2 3 4 -33 4 -36 0 -50 -2 -32 -4z"/>
<path d="M3435 2501 c28 -5 66 -11 85 -15 30 -5 32 -5 11 4 -14 6 -52 13 -85
15 -61 4 -61 4 -11 -4z"/>
<path d="M3602 2460 c75 -31 129 -71 160 -119 30 -48 38 -49 14 -2 -8 15 -32
43 -52 61 -37 32 -132 81 -157 79 -7 0 9 -9 35 -19z"/>
<path d="M4448 2403 c-49 -36 -85 -110 -103 -215 -5 -36 -4 -38 19 -38 43 0
92 30 104 64 15 39 74 67 114 54 30 -10 36 -30 41 -126 l2 -53 -59 -25 c-48
-19 -77 -24 -153 -24 -51 0 -93 -3 -93 -6 0 -10 42 -189 45 -192 2 -2 69 11
150 29 137 31 146 34 140 53 -4 12 -9 89 -12 171 -4 145 -5 153 -39 231 -35
79 -36 81 -80 91 -39 9 -47 8 -76 -14z"/>
<path d="M1787 2241 c4 -39 2 -55 -14 -78 -11 -15 -23 -34 -27 -40 -5 -9 11
-22 48 -40 l55 -27 128 23 c218 39 223 40 223 62 0 18 -8 19 -114 19 l-115 0
-28 52 c-25 47 -33 53 -78 65 -83 21 -85 20 -78 -36z"/>
<path d="M2293 2279 c-30 -9 -35 -16 -59 -93 l-26 -84 -111 -21 c-262 -48
-246 -47 -306 -17 -29 15 -60 25 -69 21 -18 -7 -82 13 -82 26 0 5 -15 9 -34 9
-30 0 -40 -8 -79 -56 -39 -49 -46 -67 -57 -133 -8 -48 -32 -122 -67 -204 l-54
-128 18 -37 c11 -22 29 -39 45 -45 23 -7 34 -3 77 31 65 52 211 102 296 102
71 0 131 -33 141 -78 3 -15 29 -62 56 -104 l50 -78 27 19 c41 30 69 63 86 105
21 50 25 43 12 -21 -8 -40 -20 -62 -49 -90 l-38 -37 88 -37 87 -38 -3 -123
c-3 -116 -16 -272 -28 -328 -9 -41 6 -16 32 52 12 35 23 56 24 48 0 -8 5 -33
11 -54 14 -52 29 -30 29 43 0 80 58 281 85 291 11 5 38 16 60 25 l39 17 -44
22 c-36 17 -51 32 -74 76 l-28 55 38 -41 c22 -22 64 -51 94 -64 30 -13 65 -33
78 -44 13 -12 55 -82 93 -156 38 -74 76 -144 84 -155 15 -19 15 -19 31 3 28
40 33 33 50 -78 l7 -45 15 33 c9 17 19 32 23 32 9 0 17 -101 10 -115 -3 -5 -8
13 -11 40 l-5 50 -20 -35 -19 -35 -8 40 c-4 22 -10 58 -14 80 l-6 40 -24 -30
c-14 -16 -38 -58 -55 -93 -17 -34 -35 -60 -40 -56 -5 3 -24 33 -42 67 l-32 62
-5 -55 -5 -55 -38 68 c-21 37 -39 67 -40 67 -1 0 0 -38 2 -85 2 -50 -1 -85 -6
-85 -6 0 -18 18 -28 40 l-18 41 -20 -31 c-26 -40 -31 -38 -24 12 5 39 4 41 -9
24 -8 -11 -14 -25 -15 -30 -1 -6 -9 13 -18 42 -17 53 -18 54 -33 30 -8 -12
-18 -33 -22 -46 -10 -31 -28 -23 -43 19 l-11 34 -11 -30 c-37 -99 -42 -103
-58 -52 l-10 32 -22 -49 c-12 -27 -24 -46 -27 -43 -3 3 -16 38 -29 79 -13 40
-26 66 -28 58 -33 -100 -52 -150 -59 -150 -11 0 -10 103 2 135 15 39 -5 22
-37 -32 l-27 -46 -16 49 c-8 27 -24 61 -34 74 -18 25 -18 25 -14 -37 2 -35 3
-63 1 -63 -2 0 -11 17 -20 38 -17 40 -18 39 -28 -31 -3 -26 -10 -47 -14 -47
-4 0 -13 25 -20 55 l-12 54 -42 -51 c-55 -67 -68 -71 -56 -18 5 23 7 45 4 50
-9 15 15 99 63 218 49 121 43 115 142 154 24 9 24 10 -20 29 -35 15 -51 31
-72 69 -36 64 -35 67 5 24 17 -19 66 -52 107 -72 l75 -37 65 -131 c65 -130
120 -224 131 -224 9 0 19 110 18 189 0 40 -9 92 -22 130 l-22 65 -80 26 -80
27 -52 98 c-29 54 -53 107 -53 116 0 10 -15 29 -33 43 -28 21 -45 26 -94 26
-83 0 -220 -48 -289 -101 -37 -28 -60 -40 -74 -36 -21 5 -15 -8 48 -111 4 -7
54 -30 111 -52 57 -21 105 -41 107 -43 2 -2 -11 -56 -30 -121 -41 -138 -53
-206 -38 -215 7 -4 7 -21 2 -51 -5 -25 -9 -63 -10 -85 -1 -59 -19 -23 -21 40
l-1 50 -14 -35 c-8 -19 -18 -44 -23 -55 -7 -17 -13 -10 -37 44 -25 58 -29 62
-35 40 -4 -13 -7 -47 -8 -75 -1 -28 -4 -54 -7 -57 -4 -4 -34 33 -66 81 -33 48
-64 92 -70 97 -10 10 -4 -136 8 -195 5 -24 5 -24 -25 7 -32 35 -56 103 -47
137 4 15 -2 11 -22 -13 -15 -19 -30 -46 -33 -60 -5 -24 -7 -22 -27 24 -51 118
-48 115 -45 39 2 -61 1 -66 -10 -41 l-11 28 -21 -43 c-28 -59 -49 -57 -53 5
l-3 48 -42 -63 -41 -63 -7 53 c-4 29 -13 67 -20 84 l-13 32 -13 -30 c-6 -16
-12 -39 -13 -51 0 -37 -26 -26 -40 17 -14 44 -30 44 -30 0 0 -42 -18 -46 -35
-8 l-14 33 -1 -30 c-1 -92 41 -140 175 -204 376 -179 1108 -271 2175 -271 888
0 1539 63 1966 189 202 60 363 146 384 205 15 43 13 44 -14 11 l-25 -30 5 80
c5 74 4 78 -9 50 -8 -16 -22 -55 -32 -85 -21 -62 -22 -61 -51 55 l-18 70 -21
-67 c-27 -86 -35 -93 -36 -32 l-1 49 -9 -45 c-18 -94 -19 -97 -31 -76 -6 11
-11 51 -12 89 l0 70 -23 -49 c-12 -27 -23 -54 -23 -61 0 -6 -3 -14 -7 -16 -5
-3 -8 14 -9 38 0 25 -9 56 -20 72 l-19 28 -5 -110 -5 -110 -29 85 c-16 47 -30
87 -33 89 -2 3 -10 -5 -18 -16 -8 -12 -31 -31 -51 -44 -34 -21 -38 -21 -49 -6
-17 24 -21 21 -30 -15 l-8 -33 -6 40 -6 40 -45 -70 -45 -70 -5 77 c-3 43 -8
80 -12 83 -3 3 -15 -31 -28 -75 -13 -44 -26 -78 -29 -75 -3 4 -15 54 -26 113
l-21 107 -26 -65 c-15 -38 -28 -59 -31 -50 -3 8 -8 22 -10 30 -3 8 -6 -14 -7
-50 l-1 -65 -36 70 c-19 39 -37 72 -39 74 -8 9 -26 -17 -39 -55 -8 -22 -19
-38 -24 -36 -6 1 -11 -6 -12 -15 -1 -20 -1 -20 -25 59 -9 32 -20 58 -24 58
-10 0 -30 -47 -30 -70 0 -27 -19 -25 -50 5 l-26 25 -23 -40 c-34 -61 -42 -48
-20 31 11 39 18 73 16 75 -10 10 -50 -49 -51 -76 -1 -30 -16 -44 -16 -14 0 21
-60 147 -67 141 -2 -3 0 -47 7 -97 6 -51 9 -94 7 -97 -10 -9 -49 36 -62 72
l-14 40 -17 -40 -18 -40 -7 35 c-5 24 -5 17 -3 -20 l4 -55 -29 50 c-28 48 -77
103 -84 94 -2 -2 -17 -26 -32 -52 -20 -34 -31 -45 -38 -38 -6 6 -19 11 -28 11
-10 0 -19 6 -21 12 -3 8 -16 3 -38 -16 -29 -24 -35 -26 -40 -12 -4 13 -9 10
-24 -15 l-18 -31 -22 67 c-33 97 -42 99 -51 11 -4 -42 -11 -74 -15 -71 -5 3
-24 31 -42 63 -29 50 -33 54 -36 32 -8 -79 -41 -133 -43 -72 -1 16 -3 20 -6
10 -6 -25 -14 -23 -45 14 -23 28 -28 30 -28 13 0 -11 -5 -27 -10 -35 -7 -11
-14 -3 -31 39 l-22 53 -20 -54 c-27 -74 -37 -81 -37 -23 l0 49 -29 -46 c-39
-62 -47 -64 -55 -18 -9 56 -35 132 -52 150 -24 25 -39 -5 -44 -88 l-5 -77 -21
45 c-12 25 -29 54 -37 65 -15 19 -17 17 -44 -42 -15 -34 -31 -62 -35 -63 -4 0
-10 16 -14 37 l-7 36 -14 -27 c-8 -15 -17 -26 -19 -23 -3 3 0 14 7 24 10 17 5
35 -35 118 -48 103 -141 395 -128 406 20 18 153 39 277 44 114 4 155 10 219
32 l79 26 -43 21 c-32 16 -50 35 -72 76 l-31 55 39 -42 c29 -30 64 -52 136
-82 54 -22 109 -43 122 -47 14 -3 29 -11 34 -17 11 -15 72 -179 72 -194 0 -7
-36 -70 -79 -141 -91 -148 -107 -191 -86 -232 7 -14 21 -32 29 -39 14 -12 16
-8 16 30 1 38 2 42 13 27 12 -14 19 -5 59 75 30 60 79 134 142 211 l96 118
-40 73 -40 72 24 54 c54 123 114 309 126 389 l13 86 -39 64 c-38 61 -42 65
-134 106 -136 61 -222 67 -725 50 -214 -7 -395 -9 -401 -4 -6 4 -19 26 -29 48
-14 31 -26 42 -54 50 -56 16 -123 20 -158 9z m-423 -419 c7 -45 11 -83 8 -85
-2 -2 -31 14 -65 36 -52 34 -62 46 -73 85 -17 59 -7 67 15 12 17 -45 105 -124
105 -95 0 56 -23 125 -53 156 l-32 35 41 -32 c40 -30 42 -35 54 -112z m-210
50 c11 -7 4 -10 -27 -10 -24 0 -43 5 -43 10 0 13 50 13 70 0z m-265 -310 c-3
-5 -11 -10 -16 -10 -6 0 -7 5 -4 10 3 6 11 10 16 10 6 0 7 -4 4 -10z m261
-716 c6 -33 7 -34 25 -18 23 21 25 7 2 -18 -23 -25 -30 -23 -36 15 -3 17 -9
41 -13 51 -5 13 -4 17 4 12 6 -4 14 -23 18 -42z"/>
<path d="M1713 2272 c-13 -8 -56 -122 -49 -129 8 -9 63 74 69 105 7 32 2 38
-20 24z"/>
<path d="M3801 2271 c26 -17 341 -153 345 -149 2 2 -74 37 -168 78 -173 76
-205 89 -177 71z"/>
<path d="M1188 2264 c-5 -4 -8 -18 -8 -32 0 -15 -16 -42 -41 -70 -32 -34 -38
-46 -28 -53 21 -13 23 -12 58 36 26 36 32 53 29 86 -2 22 -6 37 -10 33z"/>
<path d="M1750 2238 c0 -24 -10 -43 -42 -76 -35 -35 -40 -44 -28 -52 22 -14
24 -13 58 34 24 32 32 55 32 85 0 23 -4 41 -10 41 -5 0 -10 -14 -10 -32z"/>
<path d="M4522 2242 c-22 -11 -35 -26 -39 -43 -3 -15 -18 -40 -35 -56 -28 -27
-33 -28 -154 -31 -113 -3 -124 -5 -124 -22 0 -11 7 -23 16 -28 9 -5 84 -7 167
-5 124 4 162 8 206 25 l53 21 -7 71 c-4 39 -7 72 -8 72 -14 11 -49 9 -75 -4z"/>
<path d="M1051 2223 c-1 -17 -5 -43 -11 -57 -7 -20 -6 -26 5 -26 19 0 29 58
16 90 -10 25 -10 25 -10 -7z"/>
<path d="M1611 2223 c-1 -17 -5 -43 -11 -57 -7 -20 -6 -26 5 -26 19 0 29 58
16 90 -10 25 -10 25 -10 -7z"/>
<path d="M968 2066 c-40 -48 -47 -64 -58 -133 -9 -57 -28 -111 -71 -203 -53
-111 -58 -127 -48 -151 13 -33 36 -54 66 -63 17 -5 34 3 72 33 72 56 219 104
304 99 34 -2 68 -6 75 -8 9 -3 34 33 72 103 45 85 60 125 70 185 7 42 20 88
29 102 10 14 20 30 24 36 3 6 -37 3 -104 -10 l-110 -20 -63 31 c-44 22 -67 28
-74 21 -12 -12 -82 8 -82 23 0 5 -13 9 -29 9 -22 0 -38 -12 -73 -54z m310
-118 c11 -14 43 -178 34 -178 -3 0 -34 18 -68 41 -57 37 -63 44 -74 90 -16 66
-7 73 15 12 13 -35 30 -57 63 -81 l45 -34 -6 39 c-4 21 -7 48 -7 60 0 13 -17
42 -37 65 -37 41 -37 41 -7 21 17 -12 36 -28 42 -35z m-194 -4 c24 -9 19 -24
-8 -24 -33 0 -57 10 -50 21 6 10 35 12 58 3z m-249 -334 c-3 -5 -11 -10 -16
-10 -6 0 -7 5 -4 10 3 6 11 10 16 10 6 0 7 -4 4 -10z"/>
<path d="M4698 1900 c-1 -5 -68 -23 -148 -40 -196 -41 -191 -40 -186 -49 3 -4
70 4 148 19 79 16 146 26 151 23 4 -2 4 -60 1 -129 -6 -111 -5 -124 9 -124 11
0 17 8 17 25 0 21 5 25 31 25 21 0 30 4 26 13 -3 7 -15 48 -27 91 -20 71 -20
80 -6 109 14 31 13 47 -4 47 -4 0 -10 -4 -12 -10z"/>
<path d="M3825 1795 c-5 -33 -8 -79 -7 -101 2 -23 -13 -117 -32 -209 -28 -129
-33 -171 -25 -187 6 -12 7 -24 2 -29 -5 -5 -6 -29 -3 -53 4 -37 13 -51 53 -86
l47 -42 0 66 c0 60 -4 72 -37 122 l-37 55 28 152 c21 119 26 176 24 262 -3
110 -3 110 -13 50z"/>
<path d="M4513 1806 l-133 -31 0 -53 c0 -29 -5 -63 -11 -74 -9 -17 -9 -20 2
-16 8 3 39 13 68 23 35 11 72 34 103 63 26 25 48 42 48 38 0 -8 -80 -119 -92
-127 -4 -3 -40 -13 -79 -23 -57 -15 -72 -24 -80 -43 -11 -31 -12 -93 0 -93 19
0 87 33 109 53 28 26 28 15 0 -23 -13 -18 -40 -36 -70 -46 -46 -15 -48 -17
-48 -55 l0 -39 67 0 c61 0 72 3 128 40 55 36 65 48 88 103 23 54 27 80 31 200
3 75 4 136 3 136 -1 -1 -62 -15 -134 -33z"/>
<path d="M4645 1525 c-15 -32 -33 -71 -41 -86 -13 -26 -13 -28 3 -22 10 3 31
18 47 32 29 26 28 18 -6 -30 -11 -17 -31 -29 -53 -33 -38 -7 -42 -14 -22 -38
11 -15 17 -14 72 5 55 21 60 25 67 60 8 38 -13 140 -33 161 -5 6 -19 -15 -34
-49z"/>
<path d="M4100 1396 c-64 -133 -99 -192 -174 -290 -85 -112 -93 -127 -99 -177
-3 -30 -8 -61 -12 -70 -4 -11 0 -19 12 -23 10 -4 19 -3 20 1 6 18 71 105 153
204 l85 104 53 165 c29 91 56 168 60 172 4 4 31 8 60 9 43 2 52 6 52 21 0 15
-8 18 -47 18 -29 0 -53 6 -65 17 -17 15 -22 8 -98 -151z"/>
<path d="M3708 1468 c-15 -34 -16 -44 -4 -65 12 -24 13 -22 19 37 4 35 6 64 4
66 -1 1 -10 -16 -19 -38z"/>
<path d="M3212 1369 c-7 -28 -12 -83 -12 -123 l0 -73 50 -21 c27 -11 52 -18
54 -14 2 4 5 24 7 44 3 31 -3 45 -40 90 -41 50 -43 56 -38 101 8 62 -6 60 -21
-4z"/>
<path d="M2950 1382 c0 -4 10 -34 23 -66 21 -56 24 -58 88 -86 l66 -28 26 34
c33 41 34 54 1 110 l-26 44 -89 0 c-49 0 -89 -4 -89 -8z"/>
<path d="M2750 1334 c0 -3 5 -25 11 -49 l11 -43 161 -70 c89 -39 228 -100 308
-135 l147 -65 22 40 c12 22 20 41 19 43 -4 3 -601 254 -656 276 -13 5 -23 6
-23 3z"/>
<path d="M4337 1166 c-9 -226 -9 -346 1 -346 14 0 55 111 73 198 10 48 18 122
19 164 0 42 4 88 10 102 8 23 7 26 -18 32 -15 3 -39 9 -53 14 l-26 8 -6 -172z"/>
<path d="M4658 1327 l-57 -9 30 -44 c17 -25 46 -78 64 -119 19 -40 63 -120 99
-178 36 -57 66 -110 66 -117 0 -10 3 -10 14 -1 11 10 15 8 19 -6 4 -14 5 -13
6 5 0 12 5 22 10 22 14 0 -100 275 -142 345 -21 33 -37 67 -37 75 0 31 -14 36
-72 27z"/>
<path d="M3162 1219 c-12 -18 -12 -23 0 -30 14 -9 22 9 16 36 -2 12 -6 11 -16
-6z"/>
<path d="M3711 1206 c-24 -25 -24 -25 -5 -53 27 -40 55 -245 37 -269 -7 -10
-13 -27 -13 -38 0 -19 1 -18 24 3 14 13 29 20 34 17 11 -7 30 89 33 172 3 49
0 55 -38 95 -25 25 -43 54 -45 70 l-3 29 -24 -26z"/>
<path d="M2943 1128 c-5 -7 -26 -41 -47 -75 l-37 -61 28 -56 27 -56 47 90 c25
50 54 99 64 110 21 23 21 23 -29 44 -46 19 -41 19 -53 4z"/>
<path d="M3184 983 c4 -32 3 -71 -2 -88 -5 -17 -5 -46 1 -68 8 -30 12 -35 23
-26 16 13 39 90 49 159 5 45 5 46 -30 63 -20 9 -38 17 -41 17 -3 0 -3 -26 0
-57z"/>
<path d="M3537 965 c-22 -46 -22 -50 8 -63 39 -18 45 -15 45 21 l1 32 24 -30
c14 -16 25 -35 25 -42 0 -13 38 -43 56 -43 13 0 37 82 26 91 -7 6 -157 69
-164 69 -3 0 -12 -16 -21 -35z"/>
<path d="M4486 904 c-4 -9 -4 -19 -1 -22 2 -3 7 3 11 12 4 9 4 19 1 22 -2 3
-7 -3 -11 -12z"/>
<path d="M4921 859 c-1 -8 6 -24 15 -35 15 -19 15 -19 6 1 -5 11 -12 27 -15
35 -5 13 -6 13 -6 -1z"/>
</g>
</svg>
